<svg xmlns="http://www.w3.org/2000/svg" xmlns:xlink="http://www.w3.org/1999/xlink" width="788.263" height="420.858" viewBox="0 0 788.263 420.858">
    <defs>
        <linearGradient id="linear-gradient" x1=".5" x2=".5" y1="1" gradientUnits="objectBoundingBox">
            <stop offset="0" stop-color="#ad9eea"/>
            <stop offset=".25" stop-color="#b3a6eb"/>
            <stop offset=".645" stop-color="#c3bcef"/>
            <stop offset="1" stop-color="#d7d7f4"/>
        </linearGradient>
        <linearGradient id="linear-gradient-2" x1=".898" x2=".044" y1=".997" y2=".022" gradientUnits="objectBoundingBox">
            <stop offset="0" stop-color="#5b6dff" stop-opacity=".2"/>
            <stop offset="1" stop-color="#5b6dff" stop-opacity=".102"/>
        </linearGradient>
        <linearGradient id="linear-gradient-3" x1="1.544" x2="-.388" y1=".896" y2=".037" xlink:href="#linear-gradient-2"/>
        <linearGradient id="linear-gradient-4" x1="2.231" x2="-.892" y1=".872" y2=".054" xlink:href="#linear-gradient-2"/>
        <linearGradient id="linear-gradient-5" x1=".894" x2=".02" y1=".792" y2=".171" xlink:href="#linear-gradient-2"/>
        <linearGradient id="linear-gradient-6" x1=".702" x2=".296" y1=".736" y2=".211" xlink:href="#linear-gradient-2"/>
        <linearGradient id="linear-gradient-7" x1=".624" x2=".326" y1=".7" y2=".24" xlink:href="#linear-gradient-2"/>
        <linearGradient id="linear-gradient-8" x1=".671" x2=".239" y1="1.207" y2="-.237" xlink:href="#linear-gradient-2"/>
        <linearGradient id="linear-gradient-9" x1=".427" x2="-.379" y1=".206" y2="-1.392" xlink:href="#linear-gradient"/>
        <linearGradient id="linear-gradient-10" x1="-.103" x2="1.077" y1=".917" y2=".061" xlink:href="#linear-gradient"/>
        <linearGradient id="linear-gradient-11" x1="-.098" x2="1.232" y1=".92" y2=".063" xlink:href="#linear-gradient"/>
        <linearGradient id="linear-gradient-12" x1="7.048" x2="6.022" y1="-.772" y2=".201" xlink:href="#linear-gradient"/>
        <linearGradient id="linear-gradient-13" x1="-4.116" x2="-5.141" y1="-49.828" y2="-48.855" xlink:href="#linear-gradient"/>
        <linearGradient id="linear-gradient-14" x1="28.024" x2="26.999" y1="62.822" y2="63.795" xlink:href="#linear-gradient"/>
        <linearGradient id="linear-gradient-15" x1=".688" x2=".312" y1=".963" y2=".037" xlink:href="#linear-gradient"/>
        <linearGradient id="linear-gradient-18" x2="1" y1=".5" y2=".5" gradientUnits="objectBoundingBox">
            <stop offset="0" stop-color="#b6bcfc"/>
            <stop offset="1" stop-color="#ffcae0"/>
        </linearGradient>
        <linearGradient id="linear-gradient-19" x1=".017" x2=".982" y1=".739" y2=".165" xlink:href="#linear-gradient-18"/>
        <linearGradient id="linear-gradient-20" x2="1" y1=".5" y2=".5" gradientUnits="objectBoundingBox">
            <stop offset="0" stop-color="#a79efc"/>
            <stop offset="1" stop-color="#ffc3d4"/>
        </linearGradient>
        <linearGradient id="linear-gradient-24" x1="4.557" x2="4.557" y1="-.057" y2="-1.04" gradientUnits="objectBoundingBox">
            <stop offset=".337" stop-color="#516dfc"/>
            <stop offset=".512" stop-color="#546efa"/>
            <stop offset=".669" stop-color="#5f74f7"/>
            <stop offset=".818" stop-color="#717df2"/>
            <stop offset=".963" stop-color="#8b8aea"/>
            <stop offset="1" stop-color="#938ee8"/>
        </linearGradient>
        <linearGradient id="linear-gradient-25" x1=".5" x2=".5" y1="1" gradientUnits="objectBoundingBox">
            <stop offset="0" stop-color="#6d79fc"/>
            <stop offset="1" stop-color="#c8a6e0"/>
        </linearGradient>
        <linearGradient id="linear-gradient-26" x1=".5" x2=".5" y1="1" y2="0" xlink:href="#linear-gradient-24"/>
        <linearGradient id="linear-gradient-27" x1=".103" x2=".927" y1="1.106" y2=".193" gradientUnits="objectBoundingBox">
            <stop offset="0" stop-color="#12178f"/>
            <stop offset=".194" stop-color="#1a1995"/>
            <stop offset=".502" stop-color="#311fa5"/>
            <stop offset=".881" stop-color="#552ac0"/>
            <stop offset="1" stop-color="#632eca"/>
        </linearGradient>
        <linearGradient id="linear-gradient-28" x1=".102" x2=".846" y1=".966" y2=".025" gradientUnits="objectBoundingBox">
            <stop offset=".393" stop-color="#f9c6b9"/>
            <stop offset=".575" stop-color="#f9c3b6"/>
            <stop offset=".706" stop-color="#f9b9ac"/>
            <stop offset=".822" stop-color="#f9a99d"/>
            <stop offset=".928" stop-color="#f99387"/>
            <stop offset="1" stop-color="#f98074"/>
        </linearGradient>
        <linearGradient id="linear-gradient-29" x1=".214" x2="1.421" y1=".851" y2=".05" xlink:href="#linear-gradient-28"/>
        <linearGradient id="linear-gradient-30" x2="1" y1=".5" y2=".5" gradientUnits="objectBoundingBox">
            <stop offset=".184" stop-color="#f9c6b9"/>
            <stop offset=".428" stop-color="#f9c3b6"/>
            <stop offset=".605" stop-color="#f9b9ac"/>
            <stop offset=".761" stop-color="#f9a99d"/>
            <stop offset=".903" stop-color="#f99387"/>
            <stop offset="1" stop-color="#f98074"/>
        </linearGradient>
        <linearGradient id="linear-gradient-31" x1="29.438" x2="31.456" y1="22.779" y2="23.649" gradientUnits="objectBoundingBox">
            <stop offset=".133" stop-color="#f9c6b9"/>
            <stop offset=".338" stop-color="#f9c1b4"/>
            <stop offset=".547" stop-color="#f9b5a8"/>
            <stop offset=".757" stop-color="#f9a194"/>
            <stop offset=".967" stop-color="#f98579"/>
            <stop offset="1" stop-color="#f98074"/>
        </linearGradient>
        <linearGradient id="linear-gradient-32" x1=".117" x2="1.083" y1=".837" y2=".17" gradientUnits="objectBoundingBox">
            <stop offset="0" stop-color="#babeff" stop-opacity=".6"/>
            <stop offset="1" stop-color="#f6f3ff" stop-opacity=".4"/>
        </linearGradient>
        <linearGradient id="linear-gradient-33" x1="-.189" x2=".887" y1=".87" y2=".13" gradientUnits="objectBoundingBox">
            <stop offset=".337" stop-color="#6d79fc"/>
            <stop offset=".513" stop-color="#707afa"/>
            <stop offset=".671" stop-color="#7b80f5"/>
            <stop offset=".822" stop-color="#8d8aed"/>
            <stop offset=".967" stop-color="#a798e2"/>
            <stop offset="1" stop-color="#ae9ce0"/>
        </linearGradient>
        <linearGradient id="linear-gradient-34" x1=".5" x2=".5" y1="1" gradientUnits="objectBoundingBox">
            <stop offset="0" stop-color="#6d79fc"/>
            <stop offset="1" stop-color="#ae9ce0"/>
        </linearGradient>
        <linearGradient id="linear-gradient-35" x1=".256" x2=".75" y1="1.259" y2="-.239" xlink:href="#linear-gradient-18"/>
        <clipPath id="clip-path">
            <path id="Path_1536" fill="none" d="M-544.135 919.952a51.216 51.216 0 0 0 4.367-7.063c6.276-12.388 6.869-26.869 5.861-40.719a196.813 196.813 0 0 0-9.232-46.884c-1.859-5.678-4.491-11.839-9.969-14.221-4.195-1.823-9.025-.938-13.465.161a166.666 166.666 0 0 0-50.627 21.966c13.875-26.536 41.537-43.241 57.745-68.419 2.293-3.563 4.328-8.322 1.906-11.8-2.729-3.914-8.695-2.974-13.211-1.434a192.822 192.822 0 0 0-96.694 73.9c9.95-43.551 52.633-70.635 76.983-108.088 3.621-5.571 6.5-13.835 1.4-18.09-2.494-2.081-6.041-2.246-9.282-2.024-11.148.762-21.783 4.888-31.921 9.587a273.819 273.819 0 0 0-96.37 74.732c6.6-18.841 24.878-31.46 32.782-49.794 2.007-4.656 2.785-11.137-1.5-13.854-2.562-1.625-5.889-1.112-8.836-.389-39.773 9.751-72.542 79.85-72.542 79.85s-.87-67.148-3.333-98.7c-.991-12.715-6.127-44.522-25.925-32.3-21.04 12.993-9.477 144.747-9.477 144.747s-8.032-62.105-15.474-91.66c-1.878-7.46-12.593-24.068-18.733-9.521-1.586 3.761-1.639 8.012-1.183 12.062 3.966 35.316 22.205 95.089 22.205 95.089s-35.378-94.9-45.912-114.349-24.387-37.913-43.6-48.868c-26.484-15.1-56-1.273-58.907 32.331-5.913 68.412 115.87 204.9 140.516 229.736-60.654-89.862-188.693-150.395-223.685-123.479-4.962 3.816-13.928 12.226-7.915 30.714 5.814 17.878 78.208 96.777 122.961 96.777z" transform="translate(1070.168 -647.789)"/>
        </clipPath>
        <style>
            .cls-15,.cls-20,.cls-36,.cls-40,.cls-43{fill:none}.cls-29,.cls-32,.cls-42{mix-blend-mode:multiply;isolation:isolate}.cls-15{stroke:#707070}.cls-15,.cls-20,.cls-36,.cls-40,.cls-43{stroke-miterlimit:10}.cls-19{fill:url(#linear-gradient-15)}.cls-20{stroke:#e4e3ff}.cls-21{fill:url(#linear-gradient-18)}.cls-26{fill:#fff}.cls-29{fill:#abbdff;opacity:.55}.cls-32{fill:#c5cffc;opacity:.75}.cls-36{stroke:#f4dce9;stroke-width:2px}.cls-40{stroke:#f49e87}.cls-41{fill:#f73179}.cls-42{fill:#cc729b;opacity:.45}.cls-43{stroke:#d31e67}.cls-45{fill:#103fcd}.cls-46{fill:#0d30bf}.cls-47{fill:#0d1d7d}.cls-48{fill:#081466}.cls-49{fill:#f9c6b9}.cls-52{fill:#efa39c}.cls-60{fill:#646ef2}
        </style>
    </defs>
    <g id="Group_290" transform="translate(1070.168 -547.693)">
        <g id="Group_240" transform="translate(-1070.168 695.328)">
            <path id="Path_1527" fill="url(#linear-gradient)" d="M-866.665 765.889c-5.37.547-10.077 4.177-13.021 8.7a34.434 34.434 0 0 0-4.36 10.739c-.1-6.246-.271-12.515-.56-18.785 10.415-3.732 17.89-12.85 15.145-20.289-4.608.469-8.646 3.584-11.173 7.466a31.411 31.411 0 0 0-4.078 10.7c-.292-5.827-.682-11.655-1.2-17.468 10.263-3.8 17.577-12.81 14.857-20.182-4.608.469-8.646 3.584-11.173 7.466a30.58 30.58 0 0 0-3.937 10.05q-.7-7.294-1.7-14.543c8.673-4.684 13.988-13.847 10.471-19.951-3.9 1.084-6.919 4.361-8.522 8.078a29.934 29.934 0 0 0-1.984 11.63q-.96-6.881-2.227-13.695c7.889-5.649 11.994-15.158 7.875-20.758-3.755 1.51-6.391 5.1-7.571 8.975a25.875 25.875 0 0 0-.907 8.667q-1.487-7.485-3.41-14.85c7.906-5.647 12.024-15.171 7.9-20.777-3.755 1.51-6.391 5.1-7.571 8.975a27.254 27.254 0 0 0-.839 9.86q-1.8-6.639-4.01-13.155c6.683-4.761 10.167-12.807 6.684-17.54a11.66 11.66 0 0 0-6.385 7.569 23.87 23.87 0 0 0-.665 8.928q-1.7-4.907-3.652-9.727c4.97-4.95 6.789-12.216 3.2-15.729a9.981 9.981 0 0 0-4.35 7.283 19.275 19.275 0 0 0 .47 6.774c-.72-1.732-1.459-3.457-2.233-5.173.322-7.74-3.565-14.977-9.122-15.22a11.208 11.208 0 0 0 1.82 9.35 23.852 23.852 0 0 0 6.864 6.257c.74 1.692 1.447 3.391 2.133 5.093-3.774-6.243-10.353-9.972-15.022-7.49a11.207 11.207 0 0 0 6.313 7.133 24.217 24.217 0 0 0 9.329 1.926q2 5.084 3.7 10.233c-4.227-8.1-12.516-13.186-18.3-10.112.9 3.724 3.9 6.686 7.367 8.323a28.558 28.558 0 0 0 11.091 2.26c1.385 4.227 2.621 8.487 3.738 12.771-5.233-8.469-14.2-13.49-20.581-10.1 1.063 4.406 4.615 7.909 8.712 9.845a32.85 32.85 0 0 0 12.475 2.637q1.761 7.064 3.1 14.217c-4.162-9.711-12.6-16.4-19.953-14.049.291 4.979 3.453 9.469 7.513 12.369 3.863 2.76 8.471 4.255 13.1 5.325q1.075 6.148 1.9 12.344c-7.493-8.4-18.612-12.136-24.907-6.979 2.1 4.525 6.692 7.538 11.532 8.743a35.594 35.594 0 0 0 13.63.209q1.057 8.263 1.761 16.59c-7.962-8.084-19.385-11.277-25.422-5.736 2.351 4.4 7.1 7.151 12.006 8.08a35.487 35.487 0 0 0 13.567-.546c.469 5.683.839 11.382 1.145 17.087-6.838-9.3-17.974-14.14-24.769-9.35 1.768 4.665 6.131 8 10.873 9.552 4.47 1.462 9.267 1.519 13.966 1.164.341 6.587.6 13.184.829 19.776-6.236-10.828-17.633-17.379-25.518-13.041 1.341 5.229 5.631 9.342 10.546 11.578 4.676 2.13 9.879 2.761 15.022 2.937.234 6.867.444 13.727.683 20.566a.236.236 0 0 0 .472 0c.053-6.444.063-12.937 0-19.457 11.972-4.418 20.498-14.929 17.333-23.523z" transform="translate(1142.001 -646.783)"/>
            <g id="Group_239">
                <path id="Path_1528" fill="#e4e3ff" d="M-544.135 919.952a51.216 51.216 0 0 0 4.367-7.063c6.276-12.388 6.869-26.869 5.861-40.719a196.813 196.813 0 0 0-9.232-46.884c-1.859-5.678-4.491-11.839-9.969-14.221-4.195-1.823-9.025-.938-13.465.161a166.666 166.666 0 0 0-50.627 21.966c13.875-26.536 41.537-43.241 57.745-68.419 2.293-3.563 4.328-8.322 1.906-11.8-2.729-3.914-8.695-2.974-13.211-1.434a192.822 192.822 0 0 0-96.694 73.9c9.95-43.551 52.633-70.635 76.983-108.088 3.621-5.571 6.5-13.835 1.4-18.09-2.494-2.081-6.041-2.246-9.282-2.024-11.148.762-21.783 4.888-31.921 9.587a273.819 273.819 0 0 0-96.37 74.732c6.6-18.841 24.878-31.46 32.782-49.794 2.007-4.656 2.785-11.137-1.5-13.854-2.562-1.625-5.889-1.112-8.836-.389-39.773 9.751-72.542 79.85-72.542 79.85s-.87-67.148-3.333-98.7c-.991-12.715-6.127-44.522-25.925-32.3-21.04 12.993-9.477 144.747-9.477 144.747s-8.032-62.105-15.474-91.66c-1.878-7.46-12.593-24.068-18.733-9.521-1.586 3.761-1.639 8.012-1.183 12.062 3.966 35.316 22.205 95.089 22.205 95.089s-35.378-94.9-45.912-114.349-24.387-37.913-43.6-48.868c-26.484-15.1-56-1.273-58.907 32.331-5.913 68.412 115.87 204.9 140.516 229.736-60.654-89.862-188.693-150.395-223.685-123.479-4.962 3.816-13.928 12.226-7.915 30.714 5.814 17.878 78.208 96.777 122.961 96.777z" transform="translate(1070.168 -647.789)"/>
                <g id="Group_238">
                    <g id="Group_237" clip-path="url(#clip-path)">
                        <g id="Group_236" transform="translate(-35.508 -9.964)">
                            <path id="Path_1529" d="M-859.5 923.161h13.456c-9.845-24.7-23.975-63.411-43.59-108.827-44.68-103.448-92.166-173.3-92.166-173.3-11.434 5.62-35.835 26.593-38.289 43.658-7.459 51.852 160.589 238.469 160.589 238.469z" transform="translate(1129.345 -641.033)" style="mix-blend-mode:multiply;isolation:isolate" fill="url(#linear-gradient-2)"/>
                            <path id="Path_1530" fill="url(#linear-gradient-3)" d="M-912.141 685.564a918.444 918.444 0 0 1 24.857 127.058c8.692 70.163 11.456 90.461 11.456 90.461l-20.724-107.319-31.648-106.027z" transform="translate(1173.103 -619.883)"/>
                            <path id="Path_1531" fill="url(#linear-gradient-4)" d="M-875.342 658.064s-4.239 223.721 6.081 257.008-11.22-.707-11.22-.707l-13.894-113.83-10.628-138z" transform="translate(1184.119 -632.944)"/>
                            <path id="Path_1532" fill="url(#linear-gradient-5)" d="M-786.268 707.4s-34.909 25.66-53.027 64.085c-37.459 79.445-38.7 139.031-38.7 139.031s-5.031-61.933 10.64-127.68 77.1-112.927 77.1-112.927z" transform="translate(1196.582 -627.318)"/>
                            <path id="Path_1533" fill="url(#linear-gradient-6)" d="M-848.113 912.156s12.451-65.88 40.915-114.536c51.534-88.092 118.8-106.154 118.8-106.154s31.726-34.791-2.087-25.769-117.052 74.246-135.485 108.064c-26.121 47.927-42.4 109.308-31.776 143.121s9.633-4.726 9.633-4.726z" transform="translate(1204.999 -630.029)"/>
                            <path id="Path_1534" fill="url(#linear-gradient-7)" d="M-827.792 893.784s41.869-71.462 82.191-107.746 72.94-60.3 72.94-60.3 6.652-20.589-1.3-20.589-34.481 11.786-34.481 11.786l-60.633 54.583-13.491 26.682s-30.994 46.185-45.226 95.584z" transform="translate(1220.789 -610.584)"/>
                            <path id="Path_1535" fill="url(#linear-gradient-8)" d="M-1094.242 760.615s30.614-26.94 107.687 14.182 182.114 127.889 182.114 127.889l-172.947 9.59-84.086-46.642z" transform="translate(1094.242 -588.354)"/>
                        </g>
                    </g>
                </g>
            </g>
            <path id="Path_1537" fill="url(#linear-gradient-9)" d="M-882.808 811.931c8.44-9.571 10.962-22.87 4.094-28.934-4.469 3.031-6.89 8.459-7.333 13.839a34.42 34.42 0 0 0 1.258 11.525q-4.573-8.182-9.406-16.275c7.4-8.227 9.649-19.8 3.7-25.046-3.833 2.6-5.91 7.258-6.292 11.875a31.359 31.359 0 0 0 1.485 11.348q-4.531-7.487-9.341-14.805c7.232-8.211 9.391-19.614 3.5-24.813-3.835 2.6-5.911 7.258-6.294 11.875a30.587 30.587 0 0 0 1.3 10.7q-4.075-6.084-8.386-11.988c5.407-8.236 5.737-18.82-.254-22.524-2.919 2.8-4.021 7.122-3.668 11.153A29.824 29.824 0 0 0-914.69 761q-4.1-5.584-8.432-10.966c4.26-8.714 3.36-19.027-2.922-22-2.589 3.111-3.2 7.524-2.406 11.493a25.759 25.759 0 0 0 3.288 8.012q-4.847-5.861-10.018-11.416c4.274-8.72 3.379-19.052-2.909-22.028-2.589 3.111-3.2 7.524-2.406 11.493a27.264 27.264 0 0 0 3.916 9.04q-4.724-4.974-9.745-9.649c3.62-7.358 2.869-16.089-2.441-18.6a11.66 11.66 0 0 0-2.028 9.693 23.771 23.771 0 0 0 3.633 8.149q-3.812-3.5-7.813-6.81c2.025-6.714.178-13.971-4.651-15.357a9.984 9.984 0 0 0-.372 8.475 19.225 19.225 0 0 0 3.627 5.733c-1.457-1.181-2.926-2.35-4.422-3.491-3.389-6.965-10.242-11.488-15.249-9.065a11.214 11.214 0 0 0 6.04 7.36 23.878 23.878 0 0 0 9.021 2.258q2.177 1.7 4.285 3.463c-6.285-3.705-13.845-3.866-16.777.534a11.213 11.213 0 0 0 8.941 3.285 24.2 24.2 0 0 0 9.125-2.732q4.173 3.529 8.117 7.255c-7.562-5.125-17.277-5.673-20.91-.221 2.559 2.851 6.608 4.034 10.434 3.832a28.559 28.559 0 0 0 10.838-3.276q4.836 4.6 9.353 9.472c-8.625-4.975-18.9-5.14-22.912.876 3.027 3.373 7.814 4.771 12.339 4.532a32.818 32.818 0 0 0 12.235-3.6q4.9 5.385 9.476 11.049c-8.271-6.577-18.878-8.466-24.235-2.9 2.62 4.246 7.534 6.7 12.482 7.324 4.711.6 9.478-.274 14.065-1.532q3.863 4.9 7.53 9.966c-10.58-3.838-22.143-1.854-25.239 5.673 4 2.987 9.468 3.46 14.3 2.224a35.586 35.586 0 0 0 12.1-6.282q4.852 6.772 9.422 13.769c-10.844-3.341-22.418-.73-25.1 7.012 4.158 2.758 9.646 2.923 14.4 1.416a35.488 35.488 0 0 0 11.684-6.917q4.661 7.17 9.115 14.5c-10.432-4.941-22.533-3.922-26.242 3.519 3.771 3.269 9.195 4.134 14.1 3.249 4.63-.835 8.881-3.059 12.848-5.6q5.139 8.458 10.114 17.018c-10.627-6.574-23.77-6.934-28.654.625 3.662 3.966 9.391 5.55 14.777 5.189 5.125-.344 10.007-2.258 14.618-4.544q5.2 8.912 10.369 17.8c.155.266.534 0 .394-.263q-4.513-8.539-9.221-17.108z" transform="translate(1114.873 -622.02)"/>
            <path id="Path_1538" fill="url(#linear-gradient-10)" d="M-725 716.738q1.622-1.518 3.294-3a20.03 20.03 0 0 0 7.4-2.328 9.466 9.466 0 0 0 4.723-6.506c-4.344-1.8-9.9 2.364-12.41 8.412-1.139.979-2.289 1.947-3.4 2.956a16.027 16.027 0 0 0 2.625-4.824 8.433 8.433 0 0 0-.733-7.124c-4 1.407-5.195 7.6-3.165 13.155q-3.188 2.964-6.211 6.089a19.972 19.972 0 0 0 2.628-6.994 9.832 9.832 0 0 0-2.189-8.068c-4.347 2.381-4.55 9.77-1.14 15.791-2.611 2.721-5.158 5.5-7.6 8.378a22.65 22.65 0 0 0 2.721-7.571 11.673 11.673 0 0 0-2.6-9.565c-5.14 2.814-5.394 11.531-1.388 18.66q-3.985 4.794-7.686 9.835a21.343 21.343 0 0 0 2.208-6.587 11.666 11.666 0 0 0-2.594-9.565c-5.128 2.807-5.391 11.493-1.413 18.611-2.187 3.052-4.291 6.168-6.344 9.325a24.552 24.552 0 0 0 2.429-9.162 11.661 11.661 0 0 0-3.643-9.217c-4.849 3.406-4.066 12.261.856 18.928q-3.277 5.064-6.359 10.264a25.441 25.441 0 0 0 .494-8.764c-.55-3.872-2.531-7.693-5.891-9.695-4.69 4.658-2.336 14.114 4.117 20.673q-3.622 6.246-7 12.631a26 26 0 0 0 .608-9.267c-.55-3.872-2.531-7.695-5.889-9.695-4.735 4.7-2.3 14.289 4.294 20.854q-3.62 6.934-7 13.952a28.712 28.712 0 0 0 .435-9.479c-.64-4.512-2.948-8.966-6.864-11.3-5.472 5.434-2.718 16.471 4.819 24.117q-3.547 7.462-6.9 14.916c-.122.271.267.512.409.237 2.646-5.147 5.268-10.325 7.909-15.5a33.036 33.036 0 0 0 12.46 3.072c4.558.038 9.305-1.58 12.195-5.1-4.459-6.089-15.4-5.19-24.009.77q3.761-7.356 7.617-14.662a30.305 30.305 0 0 0 11 4.028c4.18.5 8.708-.5 11.723-3.435-3.466-6.041-13.587-6.348-22.093-1.777q3.359-6.294 6.87-12.487a29.775 29.775 0 0 0 10.089 5.177c4.083 1.036 8.7.625 12.068-1.9-2.628-6.348-12.394-8-21.319-4.739q3.476-6.044 7.174-11.934a29.849 29.849 0 0 0 10.409 4.631c4.134.8 8.721.133 11.941-2.581-2.96-6.148-12.686-7.269-21.366-3.6q2.81-4.4 5.782-8.676a30.46 30.46 0 0 0 11.816.572c4.14-.773 8.159-3.081 10.156-6.789-4.7-4.344-13.322-2.385-19.924 3.323q3.454-4.807 7.168-9.422a27.6 27.6 0 0 0 10.4 2.392c3.824-.024 7.791-1.438 10.174-4.429-3.636-4.819-12.134-4.237-19.114.242q3.5-4.228 7.245-8.264a24.036 24.036 0 0 0 9.226 2.2 11.043 11.043 0 0 0 8.6-3.745c-3.271-4.336-11.2-3.5-17.28.976q3.009-3.195 6.208-6.248a20.362 20.362 0 0 0 7.77 1.827 9.461 9.461 0 0 0 7.372-3.209c-2.633-3.524-8.841-3.078-13.908.214z" transform="translate(1202.967 -620.938)"/>
            <path id="Path_1539" fill="url(#linear-gradient-11)" d="M-839.348 687.959a11.043 11.043 0 0 0 6.589-6.682c-4.649-2.8-11.693.92-15.668 7.338q1.6-4.084 3.432-8.108a20.357 20.357 0 0 0 7.888-1.195 9.463 9.463 0 0 0 5.646-5.724c-3.764-2.27-9.357.453-12.838 5.392q.94-2.009 1.938-4a19.991 19.991 0 0 0 6-4.916 9.464 9.464 0 0 0 1.96-7.8c-4.674-.049-8.267 5.816-8.382 12.317-.7 1.357-1.384 2.726-2.049 4.1a15.955 15.955 0 0 0 .634-5.434 8.433 8.433 0 0 0-3.333-6.338c-3.18 2.791-1.993 8.969 1.945 13.366q-1.834 3.9-3.465 7.875a19.841 19.841 0 0 0-.18-7.36 9.839 9.839 0 0 0-5.036-6.67c-3.143 3.82-.594 10.733 4.792 15.052q-2.115 5.255-3.9 10.634a22.611 22.611 0 0 0-.3-8.041 11.666 11.666 0 0 0-5.972-7.91c-3.721 4.525-.711 12.705 5.658 17.828q-1.9 5.9-3.456 11.926a21.278 21.278 0 0 0-.411-6.866 11.666 11.666 0 0 0-5.972-7.91c-3.714 4.516-.723 12.671 5.621 17.8q-1.323 5.4-2.407 10.87a24.327 24.327 0 0 0-1.164-9.26 11.667 11.667 0 0 0-6.814-7.2c-3.23 4.965.789 12.882 7.829 17.236q-1.155 5.918-2.062 11.9a25.386 25.386 0 0 0-2.805-8.307c-1.953-3.388-5.215-6.2-9.078-6.8-2.616 6.065 3.081 13.957 11.5 17.643q-1.033 7.133-1.773 14.3a26.006 26.006 0 0 0-2.885-8.795c-1.953-3.388-5.214-6.2-9.077-6.8-2.641 6.121 3.186 14.1 11.736 17.746q-.774 7.759-1.291 15.512a28.688 28.688 0 0 0-3.118-8.909c-2.276-3.948-6.077-7.223-10.58-7.929-3.053 7.081 3.612 16.3 13.453 20.584q-.513 8.265-.842 16.447c-.013.308.444.3.472 0 .537-5.752 1.041-11.521 1.563-17.292a33.026 33.026 0 0 0 12.708-1.792c4.243-1.662 8.047-4.932 9.416-9.279-6.407-3.99-16.23.922-22 9.661.5-5.487 1.022-10.974 1.606-16.447a30.356 30.356 0 0 0 11.711-.36c4.068-1.091 7.9-3.705 9.6-7.556-5.468-4.316-14.975-.829-21.167 6.583q.772-7.093 1.724-14.149a29.767 29.767 0 0 0 11.292 1.047c4.174-.56 8.307-2.662 10.488-6.264-4.8-4.911-14.482-2.805-21.549 3.546q.973-6.905 2.212-13.748a29.869 29.869 0 0 0 11.385.42c4.136-.8 8.143-3.125 10.12-6.845-5.037-4.6-14.481-2.018-21.171 4.617q.971-5.126 2.134-10.205a30.5 30.5 0 0 0 11.178-3.87c3.553-2.26 6.423-5.9 6.9-10.084-5.982-2.279-13.249 2.748-17.249 10.5q1.414-5.748 3.142-11.413a27.575 27.575 0 0 0 10.544-1.656c3.541-1.445 6.695-4.236 7.792-7.9-5.168-3.116-12.836.587-17.645 7.341 1.112-3.482 2.319-6.94 3.645-10.364a24 24 0 0 0 9.386-1.403z" transform="translate(1160.042 -640.915)"/>
        </g>
        <g id="Group_241" transform="translate(-919.037 547.693)">
            <path id="Path_1540" d="M-700.053 689.853l-1.3 12.362 10.155-3.81z" class="cls-15" transform="translate(1094.2 -480.177)"/>
            <path id="Path_1541" d="M-874.925 655.187l11.985-3.3-7.254-8.063z" class="cls-15" transform="translate(1011.765 -502.037)"/>
            <path id="Path_1542" d="M-939.593 691.876l-3.675 11.875 10.7-1.768z" class="cls-15" transform="translate(979.307 -479.216)"/>
            <path id="Path_1543" d="M-936.82 586.025l-12.409-.736 4.27 9.97z" class="cls-15" transform="translate(976.475 -529.838)"/>
            <path id="Rectangle_521" d="M0 0H16.224V16.224H0z" class="cls-15" transform="rotate(31.813 55.547 290.97)"/>
            <path id="Rectangle_522" fill="url(#linear-gradient-12)" d="M0 0H4.591V4.591H0z" transform="rotate(-2.56 3058.65 -7847.622)"/>
            <path id="Rectangle_523" fill="url(#linear-gradient-13)" d="M0 0H13.964V13.964H0z" transform="rotate(-25.182 383.408 68.2)"/>
            <path id="Rectangle_524" fill="url(#linear-gradient-14)" d="M0 0H8.85V8.85H0z" transform="rotate(16.117 -529.073 1303.828)"/>
            <path id="Rectangle_525" d="M0 0H8.85V8.85H0z" class="cls-15" transform="rotate(-7.861 984.927 -2211.273)"/>
            <circle id="Ellipse_45" cx="2.883" cy="2.883" r="2.883" class="cls-19" transform="translate(27.425 138.004)"/>
            <circle id="Ellipse_46" cx="2.883" cy="2.883" r="2.883" class="cls-19"/>
            <circle id="Ellipse_47" cx="2.883" cy="2.883" r="2.883" class="cls-19" transform="translate(355.848 284.784)"/>
        </g>
        <g id="Group_248" transform="translate(-872.003 562.131)">
            <g id="Group_242" transform="translate(278.465)">
                <path id="Path_1544" d="M-704.427 557.6a39.793 39.793 0 0 0-41.75 31.431 39.531 39.531 0 0 0 8.676 33.825l-4.237 12.12a1.534 1.534 0 0 0 2.025 1.928l12.907-5.238a39.662 39.662 0 0 0 16.375 4.965 39.8 39.8 0 0 0 41.962-32.043 39.632 39.632 0 0 0-35.958-46.988z" class="cls-20" transform="translate(747.015 -557.482)"/>
                <path id="Path_1545" d="M-728.152 612.709l-4.962-3.923a4.415 4.415 0 0 1-.724-6.2l3.77-4.766a4.414 4.414 0 0 1 6.2-.724s2.773 2.73 5.13 1.645c2.683-1.233 7.87-6.984 10.443-11.139 1.81-2.925-2.994-6.411-2.994-6.411a4.415 4.415 0 0 1-.724-6.2l3.77-4.766a4.414 4.414 0 0 1 6.2-.724l4.96 3.923c11.183 8.841-21.327 46.99-31.069 39.285z" class="cls-21" transform="translate(752.822 -552.227)"/>
            </g>
            <g id="Group_243" transform="translate(417.557 201.399)">
                <path id="Path_1546" d="M-622.321 694.209a34.018 34.018 0 0 0-30.233 30.438 33.86 33.86 0 0 0 11.732 29.087l-1.879 10.335a1.534 1.534 0 0 0 2.3 1.589l9.8-5.9a34.025 34.025 0 0 0 15.746 1.9 34.021 34.021 0 0 0 29.826-30.306 33.936 33.936 0 0 0-37.292-37.143z" class="cls-20" transform="translate(652.711 -694.03)"/>
                <path id="Path_1547" fill="url(#linear-gradient-19)" d="M-625.7 737.938a2.712 2.712 0 0 1-2.712-2.711v-3.175A11.279 11.279 0 0 1-622.5 722a7 7 0 0 0 3.833-6.367 7.164 7.164 0 0 0-6.933-6.933h-.1a6.972 6.972 0 0 0-4.935 2.026 6.977 6.977 0 0 0-2.094 5.006 2.712 2.712 0 0 1-2.711 2.711 2.712 2.712 0 0 1-2.712-2.711 12.361 12.361 0 0 1 3.711-8.867 12.718 12.718 0 0 1 8.919-3.586 12.541 12.541 0 0 1 12.279 12.279 12.392 12.392 0 0 1-6.786 11.267 5.818 5.818 0 0 0-2.956 5.223v3.175a2.712 2.712 0 0 1-2.715 2.715zm0 1.773a2.711 2.711 0 0 0-2.711 2.712 2.711 2.711 0 0 0 2.711 2.711 2.711 2.711 0 0 0 2.712-2.711 2.712 2.712 0 0 0-2.712-2.712z" transform="translate(659.624 -689.635)"/>
            </g>
            <g id="Group_247" transform="translate(0 18.552)">
                <g id="Group_244">
                    <path id="Path_1548" fill="none" stroke="#fff" stroke-miterlimit="10" stroke-width="1.5px" d="M-905.491 573.1a47.147 47.147 0 0 1 57.816 21.244 46.881 46.881 0 0 1 1.441 42.493l9.022 12.96a1.562 1.562 0 0 1-1.459 2.444l-16.974-1.938a47.04 47.04 0 0 1-17.164 10.9 47.152 47.152 0 0 1-57.455-22.036 46.988 46.988 0 0 1 24.773-66.067z" transform="translate(935.813 -570.061)"/>
                </g>
                <g id="Group_246" transform="translate(16.968 11.983)">
                    <g id="Group_245">
                        <path id="Path_1549" fill="#9999ef" d="M-876.437 630.987l-44.2-8.351.665-32.7 53.54 9.364z" transform="translate(926.055 -572.606)"/>
                        <path id="Path_1550" fill="url(#linear-gradient-20)" d="M-866.641 604.876l-53.54-9.364 30.619-17.327z" transform="translate(926.269 -578.185)"/>
                        <path id="Rectangle_526" d="M0 0H43.511V36.754H0z" class="cls-26" transform="rotate(9.921 -83.604 75.484)"/>
                        <path id="Path_1551" d="M-918.221 589.933l-6.088 34.809 29.6-11.493z" class="cls-21" transform="translate(924.309 -572.606)"/>
                        <path id="Path_1552" d="M-874.212 596.282l-6.088 34.808-23.941-20.857z" class="cls-21" transform="translate(933.84 -569.59)"/>
                        <path id="Path_1553" d="M-870.769 630.014l-53.54-9.364 31.528-22.1z" transform="translate(924.309 -568.514)" style="mix-blend-mode:multiply;isolation:isolate" fill="#adadea" opacity="0.25"/>
                        <path id="Path_1554" d="M-870.769 628.476l-53.54-9.364 30.619-17.327z" class="cls-21" transform="translate(924.309 -566.977)"/>
                    </g>
                </g>
            </g>
        </g>
        <g id="Group_252" transform="translate(-955.788 838.959)">
            <g id="Group_249" transform="translate(89.449)">
                <path id="Rectangle_527" fill="url(#linear-gradient-24)" d="M0 0H42.983V125.428H0z" transform="rotate(-4.472 42.924 1.676)"/>
                <path id="Rectangle_528" d="M0 0H42.983V16.874H0z" class="cls-29" transform="rotate(-4.472 1108.908 -39.95)"/>
                <path id="Rectangle_529" d="M0 0H42.983V7.125H0z" class="cls-29" transform="rotate(-4.472 1382.616 -50.643)"/>
            </g>
            <g id="Group_250" transform="translate(52.129 3.352)">
                <path id="Rectangle_530" fill="url(#linear-gradient-25)" d="M0 0H37.32V123.342H0z"/>
                <path id="Rectangle_531" d="M0 0H37.32V17.431H0z" class="cls-29" transform="translate(0 89.738)"/>
                <path id="Rectangle_532" d="M0 0H37.32V6.756H0z" class="cls-29" transform="translate(0 111.38)"/>
            </g>
            <g id="Group_251" transform="translate(0 3.352)">
                <path id="Rectangle_533" fill="url(#linear-gradient-26)" d="M0 0H52.129V123.342H0z"/>
                <path id="Rectangle_534" d="M0 0H52.129V7.539H0z" class="cls-32" transform="translate(0 19.709)"/>
                <path id="Rectangle_535" d="M0 0H52.129V6.756H0z" class="cls-32" transform="translate(0 100.559)"/>
            </g>
        </g>
        <g id="Group_270" transform="translate(-844.752 610.468)">
            <path id="Path_1555" fill="url(#linear-gradient-27)" d="M-915.569 904.7s-14.417-126.113 39.089-184.1c39.455-42.759 93.259-45.452 129.833-38.813 110.185 20 73.511 221.489 73.511 221.489" transform="translate(917.337 -548.089)"/>
            <g id="Group_260" transform="translate(12.531 143.016)">
                <g id="Group_254" transform="translate(40.353)">
                    <path id="Path_1556" fill="#ffeefc" d="M-714.037 724.315c-7.742-14.038-23.909-37.73-77.256-37.084-47.767.578-73.3 51.346-78.257 61.152-.579 1.146-.869 1.785-.869 1.785l-11.062 150.643h178.1s-2.919-162.457-10.656-176.496z" transform="translate(881.481 -687.218)"/>
                    <g id="Group_253" transform="translate(46.092 4.125)" style="mix-blend-mode:multiply;isolation:isolate">
                        <path id="Path_1557" d="M-843.831 702c37.109-12.923 69.8-10.794 104.412 7.8" class="cls-36" transform="translate(853.271 -688.222)"/>
                        <path id="Path_1558" d="M-842.728 706.263c16.62-6.861 34.993-8.617 52.944-7.6s35.633 4.69 53.235 8.359" class="cls-36" transform="translate(853.794 -686.036)"/>
                        <path id="Path_1559" d="M-847.721 713a243.126 243.126 0 0 1 112.858-3.934" class="cls-36" transform="translate(851.423 -683.257)"/>
                        <path id="Path_1560" d="M-842.235 714.53a487.761 487.761 0 0 1 76.148-5.917c13.453.012 27.27.658 39.62 6" class="cls-36" transform="translate(854.029 -681.182)"/>
                        <path id="Path_1561" d="M-846.779 719.957a312.16 312.16 0 0 1 119.406-1.14" class="cls-36" transform="translate(851.87 -678.809)"/>
                        <path id="Path_1562" d="M-848.238 722.558a1146.833 1146.833 0 0 1 127.638.142" class="cls-36" transform="translate(851.178 -675.369)"/>
                        <path id="Path_1563" d="M-840.23 729.428a1046.081 1046.081 0 0 1 113.554 1.67" class="cls-36" transform="translate(854.981 -671.686)"/>
                        <path id="Path_1564" d="M-839.248 734.769a506.4 506.4 0 0 0 121 3.021" class="cls-36" transform="translate(855.447 -668.76)"/>
                        <path id="Path_1565" d="M-838.226 742.078q55.228 3.562 110.62 2.833" class="cls-36" transform="translate(855.933 -665.289)"/>
                        <path id="Path_1566" d="M-841.243 747.71A351.816 351.816 0 0 0-725.382 751" class="cls-36" transform="translate(854.5 -662.614)"/>
                        <path id="Path_1567" d="M-837.25 759.362q49.293 4.372 98.849 4.052" class="cls-36" transform="translate(856.396 -657.08)"/>
                        <path id="Path_1568" d="M-843.751 767.44a1146.784 1146.784 0 0 0 116.544 2.322" class="cls-36" transform="translate(853.309 -653.243)"/>
                        <path id="Path_1569" d="M-849.745 772.392q65.18 3.925 130.538 2.568" class="cls-36" transform="translate(850.462 -650.891)"/>
                        <path id="Path_1570" d="M-839.731 781.648H-721" class="cls-36" transform="translate(855.218 -646.495)"/>
                        <path id="Path_1571" d="M-850.231 786.173l129.789 4.562" class="cls-36" transform="translate(850.231 -644.346)"/>
                        <path id="Path_1572" d="M-841.718 793.476q62.965 4.726 126.089 6.851" class="cls-36" transform="translate(854.274 -640.878)"/>
                        <path id="Path_1573" d="M-847.731 800.693q64.215.115 128.371 3.33" class="cls-36" transform="translate(851.418 -637.45)"/>
                        <path id="Path_1574" d="M-838.226 812.843a548.247 548.247 0 0 1 109.844 1.668" class="cls-36" transform="translate(855.933 -632.624)"/>
                        <path id="Path_1575" d="M-841.231 820.648h115.783" class="cls-36" transform="translate(854.505 -627.973)"/>
                        <path id="Path_1576" d="M-827.229 826.525l88.495.826" class="cls-36" transform="translate(861.156 -625.182)"/>
                        <path id="Path_1577" d="M-844.732 699.5c.8-1.9 2.947-2.789 4.9-3.456 26.269-8.978 59.307-7.869 84.878 2.94" class="cls-36" transform="translate(852.843 -690.015)"/>
                    </g>
                    <path id="Path_1578" d="M-834.4 690.823l1.094 1.411c6.106.764 17 2.434 24.869 10.3a19.833 19.833 0 0 0 8.516 4.971c3.18.91 6.984.426 9.179-2.047a10.191 10.191 0 0 0 2.149-5.027 22.977 22.977 0 0 0-.88-11.353c-.026-.075-.062-.147-.087-.223a141.57 141.57 0 0 0-24.1-1.625 66 66 0 0 0-20.74 3.593z" transform="translate(903.842 -687.218)" style="mix-blend-mode:multiply;isolation:isolate" fill="#f4dce9" opacity="0.4"/>
                </g>
                <g id="Group_256" transform="translate(172.263 5.78)">
                    <g id="Group_255" transform="translate(141.669 15.598)">
                        <path id="Path_1579" fill="url(#linear-gradient-28)" d="M-689.213 752.554a108.493 108.493 0 0 0 20.335-22.4c1.1-1.619 10.726-18.531 9.891-18.884-2.27-.959-11.348 11.563-11.348 11.563s11.4-15.774 8.794-17.329c-.991-.591-12.359 14.543-12.359 14.543s11.186-15.851 8.932-17.233c-1.17-.718-12.839 15.1-12.839 15.1s9.687-15.2 7.864-16.151-13.117 14.034-18.1 21.941S-696 748.606-696 748.606" transform="translate(695.996 -701.712)"/>
                        <path id="Path_1580" fill="url(#linear-gradient-29)" d="M-696 737.311a126.16 126.16 0 0 1 4.444-15.789 47.789 47.789 0 0 1 8-14.24c.42-.5 1.206-.993 1.628-.5a1.058 1.058 0 0 1 .183.692 11.7 11.7 0 0 1-1.093 4.283l-1.071 2.7c-.549 1.388-1.1 2.923-.618 4.333a7.923 7.923 0 0 0 .851 1.553c3.052 4.9 3.8 14.263-4.508 21.064" transform="translate(695.996 -699.401)"/>
                        <path id="Path_1581" d="M-687.265 715.125a14.548 14.548 0 0 1 1.886 8.978 14.548 14.548 0 0 1-3.911 8.3" class="cls-40" transform="translate(699.181 -695.342)"/>
                        <path id="Path_1582" d="M-685.279 711.835a61.573 61.573 0 0 1 11.864 7.8" class="cls-40" transform="translate(701.086 -696.905)"/>
                    </g>
                    <path id="Path_1583" d="M-792.047 691.137s30.458 10.833 50.123 37.382c16 21.6 37.857 77.188 37.857 77.188l53.1-62.931s7.357 2.524 12.763 11.827c0 5.9-43.865 113.051-68.939 112.56s-68.211-54.573-68.211-54.573" class="cls-41" transform="translate(792.047 -691.137)"/>
                    <path id="Path_1584" d="M-770.926 807.784c10.584 11.38 25.357 25.69 38.722 33.075-5.59-16.533-13.6-47.555-20.59-104.676l-14.612 57.183z" class="cls-42" transform="translate(802.078 -669.743)"/>
                </g>
                <g id="Group_257" transform="translate(29.291 2.846)">
                    <path id="Path_1585" d="M-785.811 901.369c3.394-124.463-20.491-212.221-20.491-212.221S-836.5 696-867.372 730.1c-16.372 19.012-.2 31.776-5.385 62.3-9.587 56.416-16.224 108.976-16.224 108.976z" class="cls-41" transform="translate(888.981 -689.148)"/>
                    <path id="Path_1586" d="M-872.8 769.609c-8.8 51.791-15.111 100.3-16.087 107.909 50.108.389 82.8-16.24 94.256-25.68a80.412 80.412 0 0 1 9.1.366v-7.617a26.261 26.261 0 0 0-4.974-12.721l-61.794-3.746s28.531-54.734 28.531-80.731c.007.001-39.446-34.196-49.032 22.22z" class="cls-42" transform="translate(889.025 -666.364)"/>
                    <path id="Path_1587" d="M-846.239 695.628s3.552 42.059 3.552 53.391c2.814 2.814 15.443 6.987 15.443 6.987s-9.9 4.872-9.9 8.133 26.263 67.21 31.36 95.982" class="cls-43" transform="translate(909.281 -686.07)"/>
                </g>
                <g id="Group_258" transform="translate(172.297 6.482)">
                    <path id="Path_1588" d="M-742.55 759.512c3.957 42.932 8.481 140.687 8.481 140.687h-56.438c6.451-131.3-1.516-208.586-1.516-208.586s44.648 15.538 49.473 67.899z" class="cls-41" transform="translate(792.024 -691.613)"/>
                    <path id="Path_1589" d="M-775.213 698.393s7.389 30.317 6.478 46.023c-2.367 3.2-12.627 8.959-12.627 8.959s10.507 3.349 10.991 6.574-18.173 74.561-18.947 103.771" class="cls-43" transform="translate(793.309 -688.393)"/>
                </g>
                <g id="Group_259" transform="translate(0 45.128)">
                    <path id="Path_1590" fill="url(#linear-gradient-30)" d="M-825.97 805.46a61.5 61.5 0 0 1 15.985-5.381c2.274-.416 9.584-1.752 10.159-.451.8 1.8-8.3 3.844-5.832 3.844s18.651-2.127 18.755-.491-15.221 4.854-15.221 4.854 17.639-1.535 17.715.525-16.37 3.05-16.37 3.05 15.257-.24 15.326 1.7-15.676 1.754-15.676 1.754 12.137.717 12.137 2.021-18.782 4.714-40.313-.906" transform="translate(946.616 -679.223)"/>
                    <path id="Path_1591" d="M-810.84 754.563c-4.056 29.008-45 86.6-45 86.6l70.09 1.837s4.229 6.314 1.618 13.682c-4.471 7.556-75.806 29.6-107.271 29.6-33.946 0-15.766-107.992 32.381-168.464" class="cls-41" transform="translate(908.84 -717.815)"/>
                </g>
            </g>
            <g id="Group_269" transform="translate(78.037)">
                <g id="Group_261" transform="translate(103.877 70.162)">
                    <ellipse id="Ellipse_48" cx="21.101" cy="19.528" class="cls-45" rx="21.101" ry="19.528" transform="rotate(-86.523 22.381 21.061)"/>
                    <ellipse id="Ellipse_49" cx="20.609" cy="18.482" class="cls-46" rx="20.609" ry="18.482" transform="rotate(-86.521 22.38 21.061)"/>
                    <path id="Path_1592" d="M-758.151 660.987c-.677 11.146-9.2 19.7-19.034 19.1s-17.258-10.118-16.58-21.264 9.2-19.7 19.034-19.1 17.258 10.118 16.58 21.264z" class="cls-41" transform="translate(794.091 -636.936)"/>
                    <ellipse id="Ellipse_50" cx="13.254" cy="10.428" class="cls-42" rx="13.254" ry="10.428" transform="rotate(-86.522 21.683 14.74)"/>
                </g>
                <path id="Path_1593" d="M-775.886 614.143c-2.195-2.888-3.115-6.528-4.819-9.73-4.2-7.9-12.993-12.562-21.847-13.853a17.955 17.955 0 0 0-9.03.569c-4.941 1.907-8.114 7.04-13.094 8.838a23.666 23.666 0 0 1-5.919 1.016 92.109 92.109 0 0 0-20.143 3.8 25.575 25.575 0 0 0-7.177 3.375 16.378 16.378 0 0 0-5.67 18.182c1.047 2.974 2.988 5.682 3.313 8.819.336 3.251-1.114 6.642-.059 9.734a12.521 12.521 0 0 0 3.269 4.507 33.783 33.783 0 0 0 7.987 6.532 34.947 34.947 0 0 0 9.645 2.884 64.9 64.9 0 0 0 13.115 1.661 21.769 21.769 0 0 0 12.519-3.637c3.13-2.252 5.344-5.527 7.488-8.73" class="cls-47" transform="translate(864.428 -590.254)"/>
                <path id="Path_1594" d="M-798.671 605.448c-7.192 3.2-14.621 6.58-19.8 12.507-3.59 4.108-5.857 9.176-8.779 13.783s-6.853 9-12.118 10.423c-3.355.909-6.916.518-10.351-.012a5.817 5.817 0 0 1-3.695-1.54 6.282 6.282 0 0 1-1.047-3.574c-.417-4.409-1.553-9.044-4.771-12.087a9.4 9.4 0 0 0-3.953-2.177c.987 2.111 2.09 4.177 2.327 6.475.336 3.251-1.114 6.642-.059 9.735a12.521 12.521 0 0 0 3.269 4.507 33.784 33.784 0 0 0 7.987 6.532 34.947 34.947 0 0 0 9.645 2.883 64.9 64.9 0 0 0 13.115 1.661 21.769 21.769 0 0 0 12.519-3.637c3.13-2.252 5.344-5.527 7.488-8.73l30.422-33.968c-6.634-9.079-17.944-4.676-22.199-2.781z" class="cls-48" transform="translate(865.017 -584.342)"/>
                <path id="Path_1595" d="M-808.95 671.742l-9.63 22.96a10.265 10.265 0 0 0 .034 8.062c2.333 5.372 7.331 13.825 15.67 13.825 13.218 0 14.94-15.89 14.94-15.89l1.37-21.21" class="cls-49" transform="translate(885.819 -551.553)"/>
                <path id="Path_1596" fill="#f49e87" d="M-790.452 691.456l.773-11.966-22.384-7.748-.771 1.839a49.956 49.956 0 0 0 22.382 17.875z" transform="translate(888.932 -551.553)"/>
                <path id="Path_1597" d="M-758.946 627.6a29.765 29.765 0 0 1 6.751 9.151c4.828 10.171 1.876 21.317-.119 31.822-2.021 10.648-3.609 25.57-10.8 34.226-18.708 22.508-51.819-.127-57.891-22.656-4.165-15.459-6.8-36.506 4.527-49.79 13.508-15.847 42.416-16.691 57.532-2.753z" class="cls-49" transform="translate(883.354 -577.188)"/>
                <path id="Path_1598" d="M-819.275 669.961c10.628 1.326 31.537-15.18 41.6-35.3 2.155.332 3.234 3.3 5.366 4.2a3.357 3.357 0 0 0 2.439.2 1.826 1.826 0 0 0 1.232-1.944 6.781 6.781 0 0 0 2.108 2.506 3.447 3.447 0 0 0 3.148.44 2.342 2.342 0 0 0 1.423-2.664c6.472 1.351 12.878 11.608 14.342 18.154 1.932 8.64 2.64 18.323-.637 32.963 7.2-.646 15.2-11.991 18.636-18.35 7.016-12.993 2.2-29.956-7.127-40.5a26.857 26.857 0 0 0-8.593-6.872c-3.965-1.789-8.363-1.4-12.55-2.177-6.63-7.488-19.721-14.121-31.437-15.425-12.885-1.435-29.2 5.938-37.07 15.717-7.823 9.724-12.8 22.631-12.009 35.7.707 11.615 8.593 21.5 17.065 29.478" class="cls-47" transform="translate(876.748 -583.247)"/>
                <g id="Group_264" transform="translate(60.244 107.336)">
                    <g id="Group_262">
                        <path id="Path_1599" d="M-804.278 676.854a32.134 32.134 0 0 1-4.805-.637 20.952 20.952 0 0 1-12.409-7.463 9.064 9.064 0 0 1-2.09-4.944.74.74 0 0 1 .692-.782.736.736 0 0 1 .782.692 7.642 7.642 0 0 0 1.788 4.137 19.5 19.5 0 0 0 11.547 6.919c4.584.984 9.438.707 13.63.366a.735.735 0 0 1 .795.676.739.739 0 0 1-.675.795 65.639 65.639 0 0 1-9.255.241z" class="cls-48" transform="translate(823.583 -663.027)"/>
                    </g>
                    <g id="Group_263" transform="translate(25.814 10.448)">
                        <path id="Path_1600" d="M-800.1 670.574a5.473 5.473 0 0 0-4.158-.106c-4.648 1.612.594 7.432 4.748 4.252a2.865 2.865 0 0 0 .83-.937 2.535 2.535 0 0 0-1.42-3.209z" class="cls-48" transform="translate(806.081 -670.111)"/>
                    </g>
                </g>
                <path id="Path_1601" fill="url(#linear-gradient-31)" d="M-786.524 652.35c1.074.223.072 10.525.73 11.844s3 3.734 1.171 4.941c-1.625 1.075-4.429 1.618-6.078.3a4.334 4.334 0 0 1-1.375-3.431 33.487 33.487 0 0 1 .847-5.739c.373-2.112 1.361-8.606 4.705-7.915z" transform="translate(898.79 -560.787)"/>
                <path id="Path_1602" d="M-778.061 651.869c-.507 1.7-1.956 2.766-3.236 2.384s-1.906-2.068-1.4-3.767 1.956-2.766 3.234-2.383 1.908 2.067 1.402 3.766z" class="cls-48" transform="translate(903.162 -562.817)"/>
                <path id="Path_1603" d="M-797.937 649.327c-.465 1.711-1.885 2.814-3.174 2.465s-1.957-2.019-1.493-3.73 1.885-2.814 3.173-2.465 1.957 2.019 1.494 3.73z" class="cls-48" transform="translate(893.721 -564.001)"/>
                <path id="Path_1604" d="M-782.679 643.553s.1-.161.286-.422a4.791 4.791 0 0 1 .894-.948 4.466 4.466 0 0 1 1.475-.832 3.7 3.7 0 0 1 .869-.152 4.126 4.126 0 0 1 .875.062 3.893 3.893 0 0 1 .805.323 3.089 3.089 0 0 1 .692.509 4.028 4.028 0 0 1 .9 1.353 4.583 4.583 0 0 1 .341 1.209c.043.314.055.494.055.494s-.1-.118-.251-.324a6.993 6.993 0 0 0-.649-.776 5.76 5.76 0 0 0-1-.832 4.447 4.447 0 0 0-1.276-.531 4.652 4.652 0 0 0-1.392-.084c-.23.06-.457.053-.672.131a4.4 4.4 0 0 0-.62.193 6.3 6.3 0 0 0-.954.431c-.236.131-.378.196-.378.196z" class="cls-48" transform="translate(903.253 -566.062)"/>
                <path id="Path_1605" d="M-804.127 641.521s.091-.186.268-.493a4.845 4.845 0 0 1 .931-1.139 5.79 5.79 0 0 1 1.692-1.115 5.936 5.936 0 0 1 1.069-.333 7.866 7.866 0 0 1 1.136-.145 7.635 7.635 0 0 1 1.136.1 5.519 5.519 0 0 1 1.068.3 5.419 5.419 0 0 1 1.689 1.055 4.585 4.585 0 0 1 .925 1.1c.181.307.27.485.27.485s-.17-.093-.439-.264a8.306 8.306 0 0 0-1.133-.592 7.336 7.336 0 0 0-.763-.295c-.266-.108-.569-.146-.86-.24a9.273 9.273 0 0 0-1.9-.183 9.4 9.4 0 0 0-1.9.246c-.291.106-.6.151-.86.27a7.858 7.858 0 0 0-.764.321 8.141 8.141 0 0 0-1.133.631c-.267.194-.432.291-.432.291z" class="cls-48" transform="translate(893.067 -567.437)"/>
                <path id="Path_1606" d="M-784.515 667.83a11 11 0 0 1-9.366-.58.463.463 0 0 0-.72.31c-.978 7.639 2.88 9.738 4.761 9.853 5.5.333 6.077-6.266 5.972-9.205a.442.442 0 0 0-.647-.378z" class="cls-26" transform="translate(897.517 -553.723)"/>
                <g id="Group_265" transform="translate(83.93 93.889)">
                    <path id="Path_1607" d="M-796.105 665.014c2.329-2.425 3.139-7.507-.76-9.937a9.68 9.68 0 0 0-6.618-.919 6.129 6.129 0 0 0-4.04 5.956c.047 3.226 1.35 5.63 4.288 6.622a7.122 7.122 0 0 0 7.13-1.722z" class="cls-52" transform="translate(807.524 -653.911)"/>
                </g>
                <g id="Group_266" transform="translate(118.409 96.867)">
                    <path id="Path_1608" d="M-775.738 666.076c1.751-2.254 2.407-6.935-.456-9.125a5.886 5.886 0 0 0-4.894-.773c-2 .851-3.059 3.288-3.059 5.519 0 2.965.939 5.159 3.106 6.041a4.668 4.668 0 0 0 5.303-1.662z" class="cls-52" transform="translate(784.147 -655.93)"/>
                </g>
                <g id="Group_268" transform="translate(37.042 32.032)">
                    <g id="Group_267" transform="translate(20.877)">
                        <path id="Path_1609" d="M-824.106 652.254a55.2 55.2 0 0 1 15.817-25.968 50.758 50.758 0 0 1 27.48-12.839c7.736-.99 6.167-1.994 13.162.507l4.909 3.443c-12.328-1.386-24.515 3.068-34.483 10.454a50.19 50.19 0 0 0-19.254 30.837" class="cls-46" transform="translate(825.659 -611.775)"/>
                        <path id="Path_1610" d="M-825.159 651.341a55.183 55.183 0 0 1 15.816-25.968 50.763 50.763 0 0 1 27.48-12.839c7.737-.99 9.618-.653 14.525.851l3.547 3.1c-12.329-1.386-24.516 3.068-34.484 10.454a50.188 50.188 0 0 0-19.252 30.837" class="cls-45" transform="translate(825.159 -611.972)"/>
                    </g>
                    <path id="Path_1611" d="M-798.836 660.885c-.708 11.631-10.007 20.531-20.773 19.876s-18.919-10.614-18.213-22.246 10.007-20.531 20.773-19.878 18.92 10.615 18.213 22.248z" class="cls-45" transform="translate(840.002 -599.323)"/>
                    <ellipse id="Ellipse_51" cx="20.609" cy="18.482" class="cls-46" rx="20.609" ry="18.482" transform="rotate(-86.523 43.09 39.648)"/>
                    <ellipse id="Ellipse_52" cx="20.219" cy="17.84" class="cls-41" rx="20.219" ry="17.84" transform="rotate(-86.522 42.61 40.1)"/>
                    <ellipse id="Ellipse_53" cx="13.254" cy="10.428" class="cls-42" rx="13.254" ry="10.428" transform="rotate(-86.522 42.393 33.326)"/>
                </g>
            </g>
        </g>
        <g id="Group_274" transform="translate(-462.469 849.576)">
            <g id="Group_272" transform="translate(1.25)">
                <g id="Group_271">
                    <path id="Path_1612" fill="url(#linear-gradient-32)" d="M-617.09 800.094c-.086 2.67-2.643 4.839-4.707 6.586-6.184 5.233-9.658 14.423-19.4 11.05-3.889-1.348-3.044-5.622-5.624-8.146-2.764-2.7-7.266-3.289-9.512-6.572-4.345-6.35 7.535-6.035 3.058-11.975-5.384-7.139 1.721-14.872 7.909-18.037 6.488-3.319 20.065-8.555 25.838-1.475 2.54 3.116 1.829 6.767.106 10.074-1.457 2.8-5.4 6.184-4.279 9.652.937 2.9 4.475 3.708 5.928 6.286a4.836 4.836 0 0 1 .683 2.557zm1.046-43.713c-.762-1.792-1.8-3.484-4.273-3.925-5.985-1.065-10.224 7.838-4.655 11.186a5.988 5.988 0 0 0 8.928-7.261zm4.214 30.567a2.67 2.67 0 0 0-2.035-1.87c-2.852-.507-6.109 4.713-3.456 6.308 2.842 1.714 6.457-2.167 5.491-4.438z" transform="translate(657.304 -752.368)"/>
                </g>
            </g>
            <g id="Group_273" transform="translate(29.195 68.928)">
                <path id="Path_1613" fill="url(#linear-gradient-33)" d="M-625.984 836.168h-12.373v-5.9h12.373a7.238 7.238 0 0 0 7.229-7.229v-10.81a7.238 7.238 0 0 0-7.229-7.229h-12.373v-5.9h12.373a13.144 13.144 0 0 1 13.128 13.128v10.81a13.143 13.143 0 0 1-13.128 13.13z" transform="translate(638.357 -799.101)"/>
            </g>
            <path id="Rectangle_536" fill="url(#linear-gradient-34)" d="M0 0h40.534v47.417a8 8 0 0 1-8 8H8a8 8 0 0 1-8-8V0z" transform="translate(0 60.608)"/>
        </g>
        <g id="Group_289" transform="translate(-728.737 853.672)">
            <path id="Rectangle_537" fill="#7490f7" d="M4.091 0h131.978v8.572H0V4.091A4.091 4.091 0 0 1 4.091 0z" transform="translate(0 103.359)"/>
            <path id="Path_1614" fill="#9494f2" d="M-760.737 760.792l-20.325 106.283h175.336l20.558-107.741a3.618 3.618 0 0 0-3.572-4.189h-165.376a6.7 6.7 0 0 0-6.621 5.647z" transform="translate(866.044 -755.145)"/>
            <path id="Path_1615" fill="url(#linear-gradient-35)" d="M-757.872 760.792L-778.2 867.075h175.336l20.564-107.741a3.618 3.618 0 0 0-3.572-4.189h-165.379a6.7 6.7 0 0 0-6.621 5.647z" transform="translate(867.405 -755.145)"/>
            <path id="Path_1616" fill="#ffe1ff" d="M-692.407 798.093a14.981 14.981 0 0 1-14.362 12.592c-6.954 0-11.8-5.637-10.822-12.592a14.98 14.98 0 0 1 14.362-12.593c6.953 0 11.798 5.639 10.822 12.593z" transform="translate(896.129 -740.727)"/>
            <g id="Group_288" transform="translate(11.999 105.693)">
                <g id="Group_275" transform="translate(0 .477)">
                    <path id="Rectangle_538" d="M0 0H23.133V2.95H0z" class="cls-60"/>
                </g>
                <g id="Group_276" transform="translate(30.459)">
                    <path id="Rectangle_539" d="M0 0H1.106V4.16H0z" class="cls-60"/>
                </g>
                <g id="Group_277" transform="translate(32.805)">
                    <path id="Rectangle_540" d="M0 0H1.106V4.16H0z" class="cls-60"/>
                </g>
                <g id="Group_278" transform="translate(35.152)">
                    <path id="Rectangle_541" d="M0 0H1.106V4.16H0z" class="cls-60"/>
                </g>
                <g id="Group_279" transform="translate(37.499)">
                    <path id="Rectangle_542" d="M0 0H1.106V4.16H0z" class="cls-60"/>
                </g>
                <g id="Group_280" transform="translate(39.846)">
                    <path id="Rectangle_543" d="M0 0H1.106V4.16H0z" class="cls-60"/>
                </g>
                <g id="Group_281" transform="translate(42.193)">
                    <path id="Rectangle_544" d="M0 0H1.106V4.16H0z" class="cls-60"/>
                </g>
                <g id="Group_282" transform="translate(44.539)">
                    <path id="Rectangle_545" d="M0 0H1.106V4.16H0z" class="cls-60"/>
                </g>
                <g id="Group_283" transform="translate(51.384)">
                    <path id="Rectangle_546" d="M0 0H1.106V4.16H0z" class="cls-60"/>
                </g>
                <g id="Group_284" transform="translate(53.731)">
                    <path id="Rectangle_547" d="M0 0H1.106V4.16H0z" class="cls-60"/>
                </g>
                <g id="Group_285" transform="translate(56.077)">
                    <path id="Rectangle_548" d="M0 0H1.106V4.16H0z" class="cls-60"/>
                </g>
                <g id="Group_286" transform="translate(62.922)">
                    <path id="Rectangle_549" d="M0 0H1.106V4.16H0z" class="cls-60"/>
                </g>
                <g id="Group_287" transform="translate(65.269)">
                    <path id="Rectangle_550" d="M0 0H1.106V4.16H0z" class="cls-60"/>
                </g>
            </g>
        </g>
        <path id="Path_1617" fill="rgba(0,0,0,0.9)" d="M-973.286 831.033h542.456v2.95h-542.456zm558 2.95h87.372v-2.95h-87.376z" transform="translate(46.013 134.569)"/>
    </g>
</svg>
