<svg xmlns="http://www.w3.org/2000/svg" width="394.857" height="377.284" viewBox="0 0 394.857 377.284">
    <defs>
        <style>
            .cls-1{fill:#baf4ee}.cls-3{fill:#ffb031}.cls-4{fill:#ff9433}.cls-6{fill:#00c8b7}.cls-8{fill:#fff}.cls-11{fill:#d9dbdb}
        </style>
    </defs>
    <g id="Group_304" transform="translate(-641.968 96.083)">
        <g id="Group_302" transform="translate(645.449 -96.084)">
            <g id="Group_291" transform="translate(3.5)">
                <circle id="Ellipse_54" cx="133.39" cy="133.39" r="133.39" class="cls-1" transform="rotate(-45 227.711 94.321)"/>
                <path id="Path_1618" fill="#7fd6cb" d="M800.589 16.209v44.847a134.186 134.186 0 0 1-16.554 19.253v-64.1h-.024v-.152c-.077-.332-8.125-7-14.313-12.071v-2.8l7.486-1.937a14.244 14.244 0 0 1 9.194.713c1.3.561 2.648 1.095 4 1.528v5.857c6.188 5.067 10.111 8.378 10.186 8.71v.152z" opacity="0.73" transform="translate(-503.002 204.496)"/>
            </g>
            <g id="Group_301" transform="translate(0 17.501)">
                <g id="Group_292" transform="translate(2.295)">
                    <path id="Path_1619" d="M644.664-87.916l39.143 91.844 28.61-19.572L729 8.447l2.992-40.639 34.624-21.1z" class="cls-3" transform="translate(-644.664 87.916)"/>
                    <path id="Path_1620" d="M701.613-32.185l-34.952 23.92 28.61-19.572L711.85-3.746l2.992-40.639-55.172-32.859z" class="cls-4" transform="translate(-627.518 100.109)"/>
                    <path id="Path_1621" fill="#f73" d="M714.109-34.424l-54.439-42.82 55.173 32.858z" transform="translate(-627.518 100.109)"/>
                </g>
                <g id="Group_293" transform="translate(33.629 101.792)">
                    <path id="Path_1622" d="M684.971-34.382c-.309-1.789-.7-3.574-1.163-5.307l2.685-.718c.484 1.813.894 3.681 1.217 5.554z" class="cls-6" transform="translate(-631.271 40.407)"/>
                    <path id="Path_1623" d="M680.577 18.987a22.962 22.962 0 0 1-11.161-3.724l1.536-2.314a20.206 20.206 0 0 0 9.809 3.265zm11.542-2.267l-1.228-2.492a27.964 27.964 0 0 0 8.309-6.545l2.068 1.855a30.68 30.68 0 0 1-9.149 7.182zM661.683 6.391a22.939 22.939 0 0 1-2.4-10.1c0-.281.006-.561.019-.844l.032-.6 2.77.2-.028.508c-.009.249-.015.493-.015.735a20.154 20.154 0 0 0 2.108 8.866zm107.505-.634l-.013-2.779c3.619-.017 7.345-.165 11.069-.439l.2 2.77c-3.782.28-7.572.43-11.255.447zm-11.27-.364l-1.774-.137c-3.415-.285-6.509-.668-9.462-1.181l.473-2.736c2.871.495 5.886.87 9.22 1.148l1.736.131zm33.724-1.264l-.375-2.753c3.575-.488 7.258-1.096 10.95-1.807l.527 2.728c-3.744.721-7.476 1.338-11.101 1.831zm-56-2.809a53.79 53.79 0 0 1-9.1-4.032c-.437-.244-.87-.5-1.3-.758l1.435-2.38c.4.246.812.484 1.226.716a51.059 51.059 0 0 0 8.635 3.827zM707.912.213L705.5-1.171a62.274 62.274 0 0 0 4.583-9.907l2.614.941a65.232 65.232 0 0 1-4.785 10.35zM813.725-.1l-.653-2.7c3.475-.844 7.092-1.8 10.747-2.848l.765 2.674c-3.692 1.06-7.345 2.026-10.859 2.874zm21.591-6.154l-.857-2.644q5.3-1.713 10.544-3.585l.928 2.62q-5.278 1.88-10.615 3.614zM715.964-9.91a76.915 76.915 0 0 0-8.273-5.442l-.93-.493 1.273-2.47c.332.171.664.347.99.525a80.264 80.264 0 0 1 8.577 5.635zM666-14.088l-1.941-1.986a23.716 23.716 0 0 1 10.225-5.487l.934 2.62c-4.081 1.195-7.13 2.813-9.218 4.853zm30.611-5.425a44.179 44.179 0 0 0-9.631-1.065l-1.127.013-.066-2.777a46.984 46.984 0 0 1 11.431 1.118zm19.02-1.637l-2.736-.486a64.28 64.28 0 0 0 .986-10.88l2.779.013a66.975 66.975 0 0 1-1.026 11.353z" class="cls-6" transform="translate(-659.288 49.422)"/>
                    <path id="Path_1624" d="M751.889-21.318l-.988-2.6q2.594-.99 5.181-2l1.009 2.588q-2.591 1.015-5.202 2.012z" class="cls-6" transform="translate(-554.61 56.965)"/>
                </g>
                <path id="Path_1625" d="M793.67 23.338a2.778 2.778 0 0 1-.266-5.543A66 66 0 0 0 836.9-4.777a2.776 2.776 0 0 1 3.919-.27 2.772 2.772 0 0 1 .27 3.919 71.508 71.508 0 0 1-47.149 24.453c-.092.009-.18.013-.27.013z" class="cls-6" transform="translate(-475.286 181.82)"/>
                <g id="Group_297" transform="translate(90.914 77.995)">
                    <g id="Group_296">
                        <path id="Path_1626" fill="#7a4c08" d="M879.628 48.486l-96.8 57.085-96.8-57.085a.553.553 0 0 1 .015-.156c.079-.362 5.423-4.823 13.571-11.442.077-.064.141-.126.221-.191 26.729-21.7 83-66.147 83-66.147S839.092 15 865.823 36.7c8.273 6.715 13.71 11.253 13.79 11.632a.553.553 0 0 1 .015.154z" transform="translate(-686.024 76.726)"/>
                        <g id="Group_294" transform="translate(15.947)">
                            <path id="Path_1627" d="M814.132-51.514H709.689a16.223 16.223 0 0 0-16.222 16.222v157.916a16.221 16.221 0 0 0 16.222 16.22h130.872a16.219 16.219 0 0 0 16.219-16.22V-8.865z" class="cls-8" transform="translate(-693.467 51.514)"/>
                            <path id="Path_1628" fill="#e6e8e8" d="M749.784-25.085a16.221 16.221 0 0 0 16.222 16.22h26.427l-42.649-42.649z" transform="translate(-629.119 51.514)"/>
                            <rect id="Rectangle_553" width="47.59" height="47.59" fill="#82ebe3" rx="2.697" transform="translate(24.706 26.694)"/>
                            <path id="Path_1629" d="M796.14-10.672h-86.46a4.656 4.656 0 0 0-4.656 4.656 4.656 4.656 0 0 0 4.656 4.656h86.46a4.656 4.656 0 0 0 4.66-4.656 4.656 4.656 0 0 0-4.66-4.656z" class="cls-11" transform="translate(-680.262 98.18)"/>
                            <path id="Path_1630" d="M796.14.152h-86.46a4.656 4.656 0 0 0-4.656 4.656 4.656 4.656 0 0 0 4.656 4.656h86.46a4.656 4.656 0 0 0 4.66-4.656 4.656 4.656 0 0 0-4.66-4.656z" class="cls-11" transform="translate(-680.262 110.548)"/>
                            <path id="Path_1631" d="M756.875 10.652h-47.2a4.656 4.656 0 0 0-4.656 4.656 4.656 4.656 0 0 0 4.656 4.656h47.2a4.656 4.656 0 0 0 4.656-4.656 4.656 4.656 0 0 0-4.656-4.656z" class="cls-11" transform="translate(-680.262 122.545)"/>
                        </g>
                        <g id="Group_295" transform="translate(.011 125.21)">
                            <path id="Path_1632" d="M879.633 6.924v92.869a11.826 11.826 0 0 1-11.795 11.8H697.794a11.8 11.8 0 0 1-11.765-11.8V6.924L782.832 64z" class="cls-3" transform="translate(-686.029 -6.924)"/>
                            <path id="Path_1633" d="M874.625 87.277l-62.3-62.3L781.1 43.384l-31.243-18.418-62.309 62.309a11.691 11.691 0 0 0 8.51 3.7H866.1a11.735 11.735 0 0 0 8.525-3.698z" class="cls-4" transform="translate(-684.293 13.691)"/>
                        </g>
                    </g>
                </g>
                <g id="Group_300" transform="translate(251.807 75.428)">
                    <g id="Group_299">
                        <path id="Path_1634" d="M813.389-52.423a58.4 58.4 0 0 0-52.121 53.634 57.742 57.742 0 0 0 10.2 37.256 14.1 14.1 0 0 1 1.344 13.443l-4.6 11.064L787 58.1a14.159 14.159 0 0 1 9.2.711 58.034 58.034 0 0 0 28.822 4.5 58.355 58.355 0 0 0 52.123-52.089 58.177 58.177 0 0 0-63.756-63.645z" class="cls-6" transform="translate(-761.116 52.712)"/>
                        <g id="Group_298" transform="translate(27.722 33.622)">
                            <path id="Path_1635" d="M805.926 15.08l3.195-3.2s-2.537-5.98 8.105-16.069c6.334-6.006 7.752-11.819 7.236-16.573A16.612 16.612 0 0 0 809.9-35.329c-4.754-.514-10.57.9-16.573 7.238-10.089 10.642-16.072 8.1-16.072 8.1l-3.2 3.2z" class="cls-8" transform="translate(-774.055 38.84)"/>
                            <path id="Path_1636" d="M778.33-20.965a8.808 8.808 0 0 0 .87 11.435 8.813 8.813 0 0 0 11.435.874z" class="cls-8" transform="translate(-771.117 55.364)"/>
                            <path id="Path_1637" d="M802.957-29.628l-1.991 1.99a19.242 19.242 0 0 0-6.134-6.1l2.006-2.008a4.334 4.334 0 0 1 6.134 0 4.327 4.327 0 0 1-.015 6.118z" class="cls-8" transform="translate(-750.315 37.02)"/>
                        </g>
                    </g>
                    <path id="Path_1638" fill="#08b29d" d="M814.908-52.682a50.246 50.246 0 0 1 35.82 48.119 50.247 50.247 0 0 1-50.246 50.246 50.053 50.053 0 0 1-36.919-16.247 58.122 58.122 0 0 0 5.11 9.02 14.1 14.1 0 0 1 1.344 13.444l-4.6 11.064 18.784-4.87a14.159 14.159 0 0 1 9.2.711 58.058 58.058 0 0 0 28.822 4.5 58.355 58.355 0 0 0 52.123-52.089 58.152 58.152 0 0 0-59.438-63.898z" transform="translate(-758.321 52.723)"/>
                </g>
                <path id="Path_1639" d="M649.2-74.266l12.7 29.135a2.925 2.925 0 0 1-1.523 3.855l-.454.2a2.928 2.928 0 0 1-3.857-1.551l-12.243-29.336a2.928 2.928 0 0 1 1.684-3.882 2.925 2.925 0 0 1 3.693 1.579z" class="cls-3" transform="translate(-643.592 101.5)"/>
            </g>
        </g>
        <g id="Group_303" transform="translate(641.968 -87.57)">
            <path id="Path_1640" d="M674.405 20.492a9.334 9.334 0 1 0 9.335 9.335 9.335 9.335 0 0 0-9.335-9.335zm0 13.113a3.778 3.778 0 1 1 3.778-3.777 3.778 3.778 0 0 1-3.778 3.772z" class="cls-1" transform="translate(-615.571 220.77)"/>
            <path id="Path_1641" d="M791.152 38.122a9.334 9.334 0 1 0 9.335 9.333 9.334 9.334 0 0 0-9.335-9.333zm0 13.113a3.778 3.778 0 1 1 3.777-3.78 3.78 3.78 0 0 1-3.777 3.78z" class="cls-1" transform="translate(-482.175 240.914)"/>
            <path id="Path_1642" d="M825.628-29.546a7.147 7.147 0 0 0-7.146 7.148 7.147 7.147 0 0 0 7.146 7.148 7.148 7.148 0 0 0 7.148-7.148 7.148 7.148 0 0 0-7.148-7.148zm0 10.04a2.893 2.893 0 0 1-2.893-2.893 2.893 2.893 0 0 1 2.893-2.893 2.893 2.893 0 0 1 2.895 2.893 2.893 2.893 0 0 1-2.895 2.893z" class="cls-1" transform="translate(-440.282 163.597)"/>
            <path id="Path_1643" d="M767.11-82.908a7.558 7.558 0 0 0-7.557 7.557 7.557 7.557 0 0 0 7.557 7.557 7.557 7.557 0 0 0 7.557-7.557 7.558 7.558 0 0 0-7.557-7.557zm0 10.617a3.059 3.059 0 0 1-3.06-3.06 3.058 3.058 0 0 1 3.06-3.057 3.058 3.058 0 0 1 3.057 3.057 3.058 3.058 0 0 1-3.057 3.06z" class="cls-1" transform="translate(-507.614 102.625)"/>
            <path id="Path_1644" d="M654.5-.729a7.945 7.945 0 1 0 7.945 7.945A7.946 7.946 0 0 0 654.5-.729z" class="cls-1" transform="translate(-636.729 196.523)"/>
            <path id="Path_1645" d="M802.119 11.546a5.779 5.779 0 1 0 5.779 5.779 5.779 5.779 0 0 0-5.779-5.779z" class="cls-1" transform="translate(-465.581 210.548)"/>
            <path id="Path_1646" d="M714.225-81.8a8.446 8.446 0 0 0-8.446 8.446 8.446 8.446 0 0 0 8.446 8.446 8.446 8.446 0 0 0 8.446-8.446 8.446 8.446 0 0 0-8.446-8.446z" class="cls-1" transform="translate(-569.057 103.892)"/>
            <path id="Path_1647" d="M734.105 60.989a6.155 6.155 0 1 0 6.154 6.156 6.154 6.154 0 0 0-6.154-6.156z" class="cls-1" transform="translate(-543.722 267.042)"/>
            <path id="Path_1648" d="M790.277-66.6a7.225 7.225 0 0 0-7.223 7.225 7.223 7.223 0 0 0 7.223 7.223 7.224 7.224 0 0 0 7.223-7.218 7.226 7.226 0 0 0-7.223-7.23z" class="cls-1" transform="translate(-480.762 121.264)"/>
            <circle id="Ellipse_55" cx="4.112" cy="4.112" r="4.112" class="cls-1" transform="translate(49.538 110.83)"/>
            <path id="Path_1649" d="M826.723-46.358a7.014 7.014 0 0 0-7.015 7.015 7.014 7.014 0 0 0 7.015 7.013 7.013 7.013 0 0 0 7.015-7.013 7.014 7.014 0 0 0-7.015-7.015z" class="cls-1" transform="translate(-438.881 144.387)"/>
            <circle id="Ellipse_56" cx="4.476" cy="4.476" r="4.476" class="cls-1" transform="translate(9.353 135.148)"/>
            <path id="Path_1650" d="M741.911-85.024l2.811-2.811a2.517 2.517 0 0 0 0-3.544 2.513 2.513 0 0 0-3.544 0l-2.811 2.811-2.811-2.811a2.513 2.513 0 0 0-3.544 0 2.512 2.512 0 0 0 0 3.544l2.811 2.811-2.811 2.811a2.513 2.513 0 0 0 0 3.544 2.513 2.513 0 0 0 3.544 0l2.811-2.811 2.811 2.811a2.513 2.513 0 0 0 3.544 0 2.517 2.517 0 0 0 0-3.544z" class="cls-1" transform="translate(-539.918 92.11)"/>
            <path id="Path_1651" d="M652.6-45.374l2.811-2.811a2.513 2.513 0 0 0 0-3.544 2.513 2.513 0 0 0-3.544 0l-2.811 2.811-2.811-2.811a2.513 2.513 0 0 0-3.544 0 2.513 2.513 0 0 0 0 3.544l2.811 2.811-2.812 2.811a2.513 2.513 0 0 0 0 3.544 2.516 2.516 0 0 0 3.544 0l2.811-2.811 2.811 2.811a2.517 2.517 0 0 0 3.544 0 2.513 2.513 0 0 0 0-3.544z" class="cls-1" transform="translate(-641.968 137.415)"/>
            <path id="Path_1652" d="M806.478 34.164l2.38-2.38a2.123 2.123 0 1 0-3-3l-2.38 2.38-2.381-2.38a2.123 2.123 0 1 0-3 3l2.38 2.38-2.38 2.38a2.123 2.123 0 1 0 3 3l2.381-2.38 2.38 2.38a2.123 2.123 0 1 0 3-3z" class="cls-1" transform="translate(-464.284 229.535)"/>
        </g>
    </g>
</svg>
